<?xml version="1.0" standalone="no"?>
<!DOCTYPE svg PUBLIC "-//W3C//DTD SVG 20010904//EN"
 "http://www.w3.org/TR/2001/REC-SVG-20010904/DTD/svg10.dtd">
<svg version="1.0" xmlns="http://www.w3.org/2000/svg"
 width="693.000000pt" height="693.000000pt" viewBox="0 0 693.000000 693.000000"
 preserveAspectRatio="xMidYMid meet">
<metadata>
Created by potrace 1.14, written by Peter Selinger 2001-2017
</metadata>
<g transform="translate(0.000000,693.000000) scale(0.100000,-0.100000)"
fill="#000000" stroke="none">
<path d="M3617 6874 c-1 -1 -60 -4 -132 -8 -71 -3 -141 -8 -155 -11 -14 -3
-48 -8 -76 -10 -28 -3 -62 -8 -75 -10 -13 -3 -40 -8 -59 -11 -19 -3 -43 -8
-53 -10 -10 -3 -34 -8 -54 -10 -20 -3 -39 -6 -43 -9 -4 -2 -22 -7 -41 -10 -46
-8 -239 -61 -319 -87 -36 -12 -67 -23 -70 -23 -3 -1 -18 -7 -35 -14 -16 -6
-43 -16 -60 -22 -16 -6 -43 -17 -60 -24 -16 -7 -59 -25 -95 -40 -68 -28 -301
-144 -310 -154 -4 -5 -45 -28 -111 -64 -60 -31 -374 -252 -409 -287 -3 -3 -34
-30 -70 -60 -195 -164 -413 -398 -565 -605 -16 -22 -32 -42 -35 -45 -4 -3 -9
-9 -11 -15 -2 -5 -39 -63 -82 -127 -42 -64 -77 -121 -77 -127 0 -5 -3 -11 -7
-13 -10 -4 -30 -41 -114 -208 -80 -160 -142 -309 -197 -477 -40 -119 -90 -309
-108 -403 -2 -14 -7 -36 -10 -50 -3 -14 -8 -38 -10 -55 -2 -16 -6 -41 -9 -55
-4 -14 -8 -41 -10 -60 -2 -19 -6 -53 -9 -75 -17 -138 -28 -322 -26 -435 3
-166 14 -351 24 -418 3 -20 8 -57 11 -82 3 -25 8 -52 10 -60 2 -8 6 -32 9 -52
13 -85 78 -354 106 -438 30 -89 74 -210 85 -235 7 -16 23 -55 35 -85 29 -75
109 -238 134 -275 12 -16 20 -32 19 -35 -2 -9 108 -192 175 -290 62 -90 164
-225 214 -281 13 -15 42 -49 65 -75 135 -158 388 -386 560 -507 129 -90 152
-105 213 -142 92 -56 113 -68 222 -125 102 -53 140 -66 73 -25 -109 67 -120
81 -22 29 48 -25 87 -44 87 -42 0 2 -40 31 -90 64 -50 32 -90 62 -90 66 0 5
-6 8 -12 8 -7 0 -25 10 -40 23 -14 12 -46 38 -69 57 -178 144 -360 321 -484
470 l-20 24 35 -21 c103 -62 144 -84 205 -112 36 -17 69 -31 72 -31 3 0 19 -6
36 -14 18 -7 48 -19 67 -26 43 -15 83 -33 90 -41 8 -9 312 -156 340 -164 14
-4 30 -11 35 -15 6 -4 69 -27 140 -50 72 -24 137 -45 145 -48 8 -3 20 -6 26
-7 6 -2 58 -14 115 -28 137 -34 286 -58 444 -73 95 -9 432 -10 525 -1 146 15
175 18 255 33 10 2 36 6 57 9 63 10 308 74 383 101 39 14 77 26 85 28 8 1 24
6 35 11 11 4 54 22 95 39 41 17 78 29 83 28 4 -1 7 3 7 8 0 6 5 10 10 10 11 0
222 101 230 111 3 3 30 19 61 36 56 31 183 113 271 175 134 94 392 331 528
485 73 82 230 292 230 307 0 6 -5 4 -10 -4 -55 -87 -260 -313 -387 -427 -42
-37 -81 -73 -87 -78 -22 -20 -211 -163 -242 -182 -10 -7 -62 -39 -114 -72
-144 -89 -363 -200 -470 -236 -3 -1 -12 -4 -20 -8 -56 -21 -161 -58 -195 -67
-115 -32 -193 -52 -234 -60 -25 -5 -57 -12 -71 -15 -228 -50 -680 -65 -894
-30 -223 37 -299 52 -414 84 -75 20 -136 41 -135 46 3 9 9 11 83 21 57 7 258
57 347 85 135 43 430 180 483 224 8 7 29 20 45 28 17 9 44 27 60 41 l30 24
-60 -14 c-33 -8 -73 -16 -90 -18 -16 -3 -64 -10 -105 -16 -170 -25 -471 -33
-630 -17 -41 4 -82 8 -90 9 -8 0 -33 4 -55 9 -22 4 -58 10 -80 13 -22 3 -53 8
-70 11 -57 11 -290 77 -337 96 -27 10 -72 28 -100 40 -111 44 -352 174 -413
221 -5 5 -46 35 -90 67 -149 110 -290 249 -420 417 -47 60 -92 123 -100 141
-9 18 -19 35 -24 38 -5 3 -25 35 -44 72 -19 38 -42 82 -51 98 -69 130 -168
421 -189 560 -3 17 -8 46 -11 65 -14 83 -16 99 -22 165 -3 39 -9 81 -14 95 -5
14 -9 34 -9 45 -2 81 1 377 3 405 2 19 7 64 10 100 4 36 8 76 11 90 3 13 7 42
11 65 12 89 27 133 66 205 22 41 45 77 49 78 5 2 9 8 9 14 0 20 127 204 203
294 78 93 243 263 338 348 30 26 68 61 84 76 17 14 75 61 130 103 55 42 109
85 121 96 11 10 25 20 30 22 21 9 189 124 192 131 2 4 8 8 13 8 5 0 37 17 71
38 35 21 92 54 128 72 36 19 67 37 70 40 12 14 283 136 407 184 165 64 400
140 473 153 14 2 50 10 80 18 55 14 68 17 170 34 71 13 125 21 175 27 22 3 51
7 65 9 37 7 261 18 360 18 149 0 366 -17 465 -37 11 -2 54 -9 95 -16 41 -7 81
-18 88 -23 7 -5 15 -7 18 -4 3 3 29 -1 57 -10 28 -8 58 -16 67 -18 20 -4 205
-71 249 -91 18 -8 35 -13 37 -11 5 4 -48 68 -125 149 -56 60 -60 66 -35 59
119 -36 459 -217 532 -284 12 -11 22 -15 22 -9 0 27 -121 211 -178 271 -54 57
-83 91 -77 91 6 0 65 -40 75 -50 3 -3 34 -25 70 -49 36 -25 74 -52 85 -62 11
-10 54 -46 95 -81 41 -35 120 -108 175 -163 95 -96 105 -101 42 -25 -52 62
-201 213 -277 280 -40 36 -81 72 -90 80 -9 8 -24 20 -32 25 -18 12 -137 101
-158 119 -9 7 -65 43 -125 81 -143 89 -322 181 -460 234 -60 24 -119 47 -130
52 -112 48 -434 127 -590 145 -27 3 -56 7 -62 9 -26 8 -222 19 -355 20 -135 0
-165 8 -78 19 25 3 55 8 66 10 20 4 49 9 134 21 222 32 588 37 810 10 73 -9
116 -15 145 -21 17 -3 44 -7 60 -8 17 -2 41 -6 55 -9 14 -3 68 -15 120 -27
352 -78 725 -229 1018 -412 72 -45 219 -145 239 -163 7 -5 33 -26 59 -45 121
-91 362 -317 454 -425 14 -17 52 -61 84 -100 32 -38 63 -74 69 -80 10 -11 -10
32 -24 49 -5 6 -27 36 -48 66 -22 30 -44 60 -48 65 -5 6 -19 27 -32 48 -12 20
-26 37 -31 37 -5 0 -11 8 -14 18 -3 9 -22 34 -42 56 -19 21 -33 40 -31 43 3 2
26 -21 53 -52 27 -31 63 -71 79 -88 17 -18 58 -70 93 -115 34 -46 62 -80 62
-76 0 11 -48 91 -99 164 -24 36 -54 79 -65 95 -12 17 -23 32 -26 35 -3 3 -21
25 -40 50 -19 25 -39 50 -45 57 -5 6 -26 30 -45 54 -155 188 -422 437 -600
559 -19 13 -37 27 -40 30 -9 12 -161 110 -171 110 -5 0 -9 5 -9 10 0 6 -5 10
-10 10 -6 0 -34 15 -63 33 -54 34 -62 39 -212 114 -204 103 -429 188 -665 251
-84 23 -301 68 -370 77 -25 3 -63 8 -85 12 -108 16 -535 38 -548 27z"/>
<path d="M4277 4150 c-132 -34 -241 -136 -264 -249 -9 -44 -9 -135 1 -148 4
-7 6 -13 3 -13 -12 0 33 -113 67 -168 65 -107 127 -181 351 -416 22 -23 72
-102 85 -134 7 -19 14 -61 14 -95 2 -126 -72 -207 -188 -207 -42 0 -45 2 -65
43 -23 47 -31 134 -20 206 8 54 5 59 -39 63 -26 2 -32 7 -32 25 0 14 -6 22
-17 22 -10 -1 -46 2 -80 4 -75 6 -74 8 -79 -131 -3 -101 9 -182 33 -219 9 -13
12 -23 8 -23 -11 0 43 -61 82 -91 32 -26 138 -66 223 -85 51 -11 120 -12 159
-1 18 5 42 10 53 12 32 7 100 51 135 87 78 83 108 164 105 287 -3 141 -70 260
-254 456 -47 50 -104 110 -127 135 -43 46 -125 163 -122 174 1 3 -5 19 -12 34
-7 15 -12 50 -11 79 5 92 62 153 156 166 30 4 41 0 59 -19 12 -13 18 -24 13
-24 -5 0 -4 -4 2 -8 24 -15 39 -180 24 -257 -6 -29 2 -35 50 -35 33 0 50 -4
50 -12 0 -19 140 -24 141 -6 9 94 6 242 -6 280 -35 116 -74 159 -205 226 -76
38 -94 43 -170 47 -47 2 -102 0 -123 -5z"/>
<path d="M5597 4139 c-133 -42 -211 -136 -232 -281 -8 -50 -8 -957 -1 -1007
16 -107 67 -188 151 -242 34 -22 81 -40 100 -39 3 0 21 -6 40 -14 49 -21 109
-30 190 -29 153 3 273 86 315 219 21 67 22 85 24 529 1 481 -2 558 -31 639
-21 57 -88 130 -148 162 -22 11 -57 31 -78 42 -70 41 -236 51 -330 21z m257
-209 c14 -17 29 -45 34 -63 14 -50 9 -1016 -6 -1049 -12 -29 -68 -87 -86 -89
-6 -1 -32 -3 -57 -4 -45 -3 -47 -1 -70 39 l-24 41 -1 495 c-1 554 0 568 61
617 61 49 114 54 149 13z"/>
<path d="M1367 4132 c-16 -3 -17 -61 -17 -778 0 -730 1 -774 18 -775 9 -1 32
-1 51 0 25 0 32 -3 28 -14 -7 -17 28 -22 123 -17 l65 3 -1 280 c-1 179 2 282
9 286 6 3 58 7 116 8 141 2 203 23 264 89 44 48 84 143 99 236 13 80 15 250 4
315 -3 17 -8 46 -12 65 -3 19 -11 41 -16 48 -6 6 -8 12 -4 12 12 0 -56 100
-82 121 -70 54 -168 102 -239 116 -30 6 -379 10 -406 5z m427 -227 c42 -57 54
-115 54 -255 0 -129 -10 -186 -41 -246 -16 -31 -51 -66 -70 -71 -60 -14 -98
-19 -101 -14 -3 6 -1 615 2 617 1 1 32 1 68 0 61 -2 68 -4 88 -31z"/>
<path d="M2247 4132 c-11 -2 -17 -13 -18 -30 0 -35 0 -1457 0 -1498 1 -29 2
-30 47 -28 36 2 47 -2 51 -14 3 -15 17 -17 90 -15 48 2 88 5 91 7 2 3 4 160 3
350 l0 346 62 1 c34 1 76 0 92 -1 17 -1 50 -3 75 -4 l45 -1 1 -328 c0 -228 4
-331 12 -336 6 -3 27 -6 48 -5 26 2 38 -2 41 -14 3 -15 17 -17 93 -14 l90 3 0
768 0 767 -29 -2 c-35 -2 -48 5 -52 30 -4 18 -12 20 -89 19 -47 -1 -92 -2
-100 -2 -13 -1 -15 -46 -15 -343 l0 -343 -135 0 -135 0 -2 290 c-1 160 -2 304
-3 321 0 27 -3 30 -29 28 -36 -2 -56 10 -48 30 4 9 3 16 -1 17 -21 3 -171 4
-185 1z"/>
<path d="M3140 4125 c0 -6 11 -44 24 -85 13 -41 34 -109 46 -150 11 -41 25
-84 30 -95 10 -23 29 -83 35 -111 2 -10 11 -39 20 -64 9 -25 19 -56 21 -69 3
-14 7 -28 10 -33 3 -4 16 -44 29 -88 14 -44 36 -117 51 -162 25 -81 25 -89 25
-385 l0 -303 22 -1 c12 -1 34 -1 50 0 17 1 27 -4 27 -13 0 -11 19 -15 81 -18
45 -2 86 0 92 4 7 4 11 107 11 305 2 334 -8 271 91 583 86 270 127 402 130
420 2 11 7 25 10 30 3 5 8 18 10 27 1 10 13 48 25 85 12 37 19 71 16 76 -3 5
-21 8 -41 7 -32 -3 -34 -1 -29 21 3 13 2 24 -2 25 -5 0 -50 1 -101 2 -90 2
-92 2 -99 -23 -9 -30 -9 -31 -17 -50 -3 -8 -15 -51 -26 -95 -42 -162 -90 -324
-100 -342 -10 -17 -10 -17 -12 0 -1 9 -2 20 -3 25 -4 16 -37 129 -46 157 -5
17 -11 41 -14 55 -3 14 -18 70 -34 125 -28 96 -30 99 -58 101 -43 2 -44 2 -44
24 0 11 -6 20 -12 21 -83 6 -218 2 -218 -6z"/>
<path d="M4929 4130 c-1 -3 -2 -353 -2 -777 -1 -509 1 -773 8 -774 6 -1 28 -2
50 -3 26 0 39 -5 38 -13 -3 -15 21 -17 147 -14 l40 1 0 764 c0 602 -3 765 -12
768 -7 3 -25 4 -40 3 -23 -2 -28 2 -28 22 0 12 -6 23 -12 24 -47 4 -188 3
-189 -1z"/>
</g>
</svg>
