<?xml version="1.0" encoding="UTF-8" standalone="no"?>
<!DOCTYPE svg PUBLIC "-//W3C//DTD SVG 1.1//EN" "http://www.w3.org/Graphics/SVG/1.1/DTD/svg11.dtd">
<svg width="100%" height="100%" viewBox="0 0 1328 730" version="1.1" xmlns="http://www.w3.org/2000/svg" xmlns:xlink="http://www.w3.org/1999/xlink" xml:space="preserve" xmlns:serif="http://www.serif.com/" style="fill-rule:evenodd;clip-rule:evenodd;stroke-miterlimit:10;">
    <g id="Ebene-1" serif:id="Ebene 1" transform="matrix(4.16667,0,0,4.16667,-596.383,-1393.8)">
        <g transform="matrix(-0.816071,-0.577952,-0.577952,0.816071,211.136,466.664)">
            <path d="M17.813,20.388C33.611,19.635 47.218,12.077 56.621,0.37C51.882,19.243 36.934,33.113 17.813,34.024C-3.128,35.023 -22.468,20.164 -30.104,-0.961C-17.686,12.893 -0.403,21.255 17.813,20.388" style="fill:rgb(255,221,0);fill-rule:nonzero;"/>
        </g>
        <g transform="matrix(-0.816071,-0.577952,-0.577952,0.816071,211.136,466.664)">
            <path d="M17.813,20.388C33.611,19.635 47.218,12.077 56.621,0.37C51.882,19.243 36.934,33.113 17.813,34.024C-3.128,35.023 -22.468,20.164 -30.104,-0.961C-17.686,12.893 -0.403,21.255 17.813,20.388Z" style="fill:none;fill-rule:nonzero;stroke:white;stroke-width:0.2px;"/>
        </g>
        <g transform="matrix(1,0,0,1,159.005,418.979)">
            <path d="M0,0.823C7.18,-44.712 49.78,-76.344 95.151,-69.827C117.904,-66.56 137.031,-54.318 149.543,-37.183C137.066,-58.01 115.697,-73.199 89.699,-76.933C43.297,-83.597 -0.272,-51.247 -7.615,-4.677C-13.591,33.233 6.28,68.878 38.907,84.42C10.964,67.794 -5.43,35.266 0,0.823" style="fill:rgb(255,221,0);fill-rule:nonzero;"/>
        </g>
        <g transform="matrix(1,0,0,1,159.005,418.979)">
            <path d="M0,0.823C7.18,-44.712 49.78,-76.344 95.151,-69.827C117.904,-66.56 137.031,-54.318 149.543,-37.183C137.066,-58.01 115.697,-73.199 89.699,-76.933C43.297,-83.597 -0.272,-51.247 -7.615,-4.677C-13.591,33.233 6.28,68.878 38.907,84.42C10.964,67.794 -5.43,35.266 0,0.823Z" style="fill:none;fill-rule:nonzero;stroke:white;stroke-width:0.2px;"/>
        </g>
        <g transform="matrix(0.992829,-0.119546,-0.119546,-0.992829,237.311,364.804)">
            <path d="M0.429,-0.365C16.165,-1.903 29.718,-8.009 39.084,-16.715C34.362,-3.351 19.474,7.209 0.429,9.071C-20.43,11.11 -39.69,2.074 -47.294,-12.053C-34.926,-3.265 -17.714,1.409 0.429,-0.365" style="fill:rgb(255,221,0);fill-rule:nonzero;"/>
        </g>
        <g transform="matrix(0.992829,-0.119546,-0.119546,-0.992829,237.311,364.804)">
            <path d="M0.429,-0.365C16.165,-1.903 29.718,-8.009 39.084,-16.715C34.362,-3.351 19.474,7.209 0.429,9.071C-20.43,11.11 -39.69,2.074 -47.294,-12.053C-34.926,-3.265 -17.714,1.409 0.429,-0.365Z" style="fill:none;fill-rule:nonzero;stroke:white;stroke-width:0.2px;"/>
        </g>
        <g transform="matrix(0.958039,-0.286639,-0.286639,-0.958039,214.817,373.886)">
            <path d="M2.749,-0.43C22.52,-0.237 39.548,-6.237 51.315,-16.17C45.384,0.412 26.678,11.972 2.749,11.738C-23.456,11.483 -47.657,-2.836 -57.21,-22.106C-41.672,-9.062 -20.046,-0.653 2.749,-0.43" style="fill:rgb(36,130,142);fill-rule:nonzero;"/>
        </g>
        <g transform="matrix(0.958039,-0.286639,-0.286639,-0.958039,214.817,373.886)">
            <path d="M2.749,-0.43C22.52,-0.237 39.548,-6.237 51.315,-16.17C45.384,0.412 26.678,11.972 2.749,11.738C-23.456,11.483 -47.657,-2.836 -57.21,-22.106C-41.672,-9.062 -20.046,-0.653 2.749,-0.43Z" style="fill:none;fill-rule:nonzero;stroke:white;stroke-width:0.2px;"/>
        </g>
        <g transform="matrix(0.822989,-0.568058,-0.568058,-0.822989,196.68,381.223)">
            <path d="M7.868,0.204C27.899,-1.755 45.151,-9.528 57.071,-20.61C51.063,-3.599 32.111,9.844 7.868,12.216C-18.683,14.812 -43.201,3.311 -52.881,-14.669C-37.138,-3.484 -15.228,2.464 7.868,0.204" style="fill:rgb(119,200,206);fill-rule:nonzero;"/>
        </g>
        <g transform="matrix(0.822989,-0.568058,-0.568058,-0.822989,196.68,381.223)">
            <path d="M7.868,0.204C27.899,-1.755 45.151,-9.528 57.071,-20.61C51.063,-3.599 32.111,9.844 7.868,12.216C-18.683,14.812 -43.201,3.311 -52.881,-14.669C-37.138,-3.484 -15.228,2.464 7.868,0.204Z" style="fill:none;fill-rule:nonzero;stroke:white;stroke-width:0.2px;"/>
        </g>
        <g transform="matrix(1,0,0,1,223.701,356.852)">
            <path d="M0,139.482C-38.111,134.349 -64.396,99.177 -58.708,60.923C-53.021,22.669 -17.515,-4.181 20.597,0.952C37.563,3.237 52.182,11.479 62.683,23.292C51.454,9.464 35.144,-0.261 16.017,-2.837C-24.336,-8.271 -61.931,20.158 -67.953,60.662C-73.975,101.167 -46.145,138.407 -5.792,143.841C23.253,147.753 50.868,134.121 66.31,111.07C51.444,131.292 26.346,143.03 0,139.482" style="fill:rgb(0,121,131);fill-rule:nonzero;"/>
        </g>
        <g transform="matrix(1,0,0,1,223.701,356.852)">
            <path d="M0,139.482C-38.111,134.349 -64.396,99.177 -58.708,60.923C-53.021,22.669 -17.515,-4.181 20.597,0.952C37.563,3.237 52.182,11.479 62.683,23.292C51.454,9.464 35.144,-0.261 16.017,-2.837C-24.336,-8.271 -61.931,20.158 -67.953,60.662C-73.975,101.167 -46.145,138.407 -5.792,143.841C23.253,147.753 50.868,134.121 66.31,111.07C51.444,131.292 26.346,143.03 0,139.482Z" style="fill:none;fill-rule:nonzero;stroke:white;stroke-width:0.2px;"/>
        </g>
        <g transform="matrix(1,0,0,1,161.944,420.919)">
            <path d="M0,0.81C7.06,-43.972 48.956,-75.079 93.576,-68.671C115.952,-65.457 134.762,-53.419 147.067,-36.567C134.796,-57.048 113.781,-71.987 88.214,-75.659C42.58,-82.213 -0.268,-50.398 -7.489,-4.599C-13.367,32.683 6.176,67.738 38.263,83.023C10.782,66.672 -5.341,34.683 0,0.81" style="fill:rgb(119,200,206);fill-rule:nonzero;"/>
        </g>
        <g transform="matrix(1,0,0,1,161.944,420.919)">
            <path d="M0,0.81C7.06,-43.972 48.956,-75.079 93.576,-68.671C115.952,-65.457 134.762,-53.419 147.067,-36.567C134.796,-57.048 113.781,-71.987 88.214,-75.659C42.58,-82.213 -0.268,-50.398 -7.489,-4.599C-13.367,32.683 6.176,67.738 38.263,83.023C10.782,66.672 -5.341,34.683 0,0.81Z" style="fill:none;fill-rule:nonzero;stroke:white;stroke-width:0.2px;"/>
        </g>
        <g transform="matrix(1,0,0,1,190.923,441.832)">
            <path d="M0,20.334C3.187,20.334 5.533,17.355 5.533,15.952L5.533,12.114L1.292,12.114C1.292,12.114 1.12,12.114 1.12,11.685C1.12,11.255 1.292,11.255 1.292,11.255L5.749,11.255C6.007,11.255 6.179,11.484 6.179,11.828L6.179,15.952C6.179,17.957 3.402,21.193 -0.086,21.193C-4.414,21.193 -7.944,17.585 -7.944,10.625C-7.944,2.549 -3.94,-0.859 0.108,-0.859C3.229,-0.859 5.426,1.346 5.426,4.353C5.426,5.642 4.974,6.673 4.801,6.673C4.672,6.673 4.586,6.559 4.586,6.387C4.586,6.186 4.78,5.67 4.801,4.582C4.866,1.832 2.799,-0.001 0.108,-0.001C-3.639,-0.001 -7.298,2.835 -7.298,10.625C-7.298,17.213 -4.069,20.334 0,20.334" style="fill:rgb(36,130,142);fill-rule:nonzero;"/>
        </g>
        <g transform="matrix(1,0,0,1,190.923,441.832)">
            <path d="M0,20.334C3.187,20.334 5.533,17.355 5.533,15.952L5.533,12.114L1.292,12.114C1.292,12.114 1.12,12.114 1.12,11.685C1.12,11.255 1.292,11.255 1.292,11.255L5.749,11.255C6.007,11.255 6.179,11.484 6.179,11.828L6.179,15.952C6.179,17.957 3.402,21.193 -0.086,21.193C-4.414,21.193 -7.944,17.585 -7.944,10.625C-7.944,2.549 -3.94,-0.859 0.108,-0.859C3.229,-0.859 5.426,1.346 5.426,4.353C5.426,5.642 4.974,6.673 4.801,6.673C4.672,6.673 4.586,6.559 4.586,6.387C4.586,6.186 4.78,5.67 4.801,4.582C4.866,1.832 2.799,-0.001 0.108,-0.001C-3.639,-0.001 -7.298,2.835 -7.298,10.625C-7.298,17.213 -4.069,20.334 0,20.334Z" style="fill:none;fill-rule:nonzero;stroke:rgb(36,130,142);stroke-width:1px;"/>
        </g>
        <g transform="matrix(1,0,0,1,210.069,445.326)">
            <path d="M0,16.582C0,16.582 0.151,16.64 0.151,16.983C0.151,17.355 0,17.413 0,17.413L-8.72,17.413C-8.935,17.413 -9.086,17.213 -9.086,16.926L-9.086,-0.344C-9.086,-0.659 -8.935,-0.831 -8.72,-0.831L-0.517,-0.831C-0.517,-0.831 -0.366,-0.773 -0.366,-0.43C-0.366,-0.058 -0.517,0 -0.517,0L-8.461,0L-8.461,9.537L-1.636,9.537C-1.636,9.537 -1.486,9.594 -1.486,9.967C-1.486,10.339 -1.636,10.396 -1.636,10.396L-8.461,10.396L-8.461,16.582L0,16.582Z" style="fill:rgb(36,130,142);fill-rule:nonzero;stroke:rgb(36,130,142);stroke-width:1px;"/>
        </g>
        <g transform="matrix(1,0,0,1,219.568,453.547)">
            <path d="M0,0.142L-5.275,0.142L-5.275,8.362L-0.366,8.362C2.583,8.362 3.768,6.586 3.768,3.923C3.768,1.545 2.39,0.142 0,0.142ZM-5.275,-0.66L-0.517,-0.66C1.981,-0.66 2.864,-2.349 2.864,-4.469C2.864,-7.448 1.292,-8.22 -1.528,-8.22L-5.275,-8.22L-5.275,-0.66ZM1.464,-0.402C2.928,-0.172 4.479,1.517 4.479,3.808C4.479,6.902 2.928,9.193 -0.064,9.193L-5.555,9.193C-5.77,9.193 -5.921,8.993 -5.921,8.705L-5.921,-8.564C-5.921,-8.879 -5.77,-9.051 -5.555,-9.051L-1.528,-9.051C1.68,-9.051 3.596,-7.906 3.596,-4.412C3.596,-2.235 2.713,-1.089 1.464,-0.402Z" style="fill:rgb(36,130,142);fill-rule:nonzero;stroke:rgb(36,130,142);stroke-width:1px;"/>
        </g>
        <g transform="matrix(1,0,0,1,228.421,451.512)">
            <path d="M0,4.211L0,11.027C0,11.027 -0.043,11.228 -0.323,11.228C-0.603,11.228 -0.646,11.027 -0.646,11.027L-0.646,-6.845C-0.646,-6.845 -0.603,-7.017 -0.323,-7.017C-0.043,-7.017 0,-6.845 0,-6.845L0,3.352L10.119,3.352L10.119,-6.845C10.119,-6.845 10.162,-7.017 10.442,-7.017C10.722,-7.017 10.765,-6.845 10.765,-6.845L10.765,11.027C10.765,11.027 10.722,11.228 10.442,11.228C10.162,11.228 10.119,11.027 10.119,11.027L10.119,4.211L0,4.211Z" style="fill:rgb(36,130,142);fill-rule:nonzero;stroke:rgb(36,130,142);stroke-width:1px;"/>
        </g>
        <g transform="matrix(1,0,0,1,244.402,449.135)">
            <path d="M0,8.649L8.763,8.649L4.392,-3.638L0,8.649ZM4.78,-4.554L11.131,13.174C11.131,13.174 11.196,13.318 11.196,13.404C11.196,13.518 11.088,13.604 10.83,13.604C10.593,13.604 10.464,13.375 10.464,13.375L9.064,9.451L-0.28,9.451L-1.679,13.375C-1.679,13.375 -1.809,13.604 -2.045,13.604C-2.304,13.604 -2.411,13.518 -2.411,13.404C-2.411,13.318 -2.347,13.174 -2.347,13.174L4.005,-4.554C4.005,-4.554 4.112,-4.955 4.392,-4.955C4.672,-4.955 4.78,-4.554 4.78,-4.554Z" style="fill:rgb(36,130,142);fill-rule:nonzero;stroke:rgb(36,130,142);stroke-width:1px;"/>
        </g>
        <g transform="matrix(1,0,0,1,268.692,445.24)">
            <path d="M0,16.754C0.065,16.754 0.151,16.926 0.151,17.012C0.151,17.184 -0.366,17.499 -0.839,17.499C-2.863,17.499 -3.703,13.002 -6.028,11.255C-6.674,11.427 -7.363,11.513 -8.052,11.513C-8.547,11.513 -8.677,11.313 -8.677,11.084C-8.677,10.797 -8.547,10.769 -8.289,10.769C-4.909,10.769 -1.722,8.964 -1.722,4.782C-1.722,0.858 -4.026,0.086 -6.997,0.086L-9.646,0.086L-9.646,17.299C-9.646,17.299 -9.688,17.499 -9.968,17.499C-10.248,17.499 -10.292,17.299 -10.292,17.299L-10.292,-0.258C-10.292,-0.573 -10.141,-0.745 -9.925,-0.745L-6.954,-0.745C-3.725,-0.745 -1.033,0.515 -1.033,4.726C-1.033,8.076 -2.906,10.139 -5.275,11.026C-3.1,12.774 -2.39,16.84 -0.581,16.84C-0.215,16.84 -0.086,16.754 0,16.754" style="fill:rgb(36,130,142);fill-rule:nonzero;"/>
        </g>
        <g transform="matrix(1,0,0,1,268.692,445.24)">
            <path d="M0,16.754C0.065,16.754 0.151,16.926 0.151,17.012C0.151,17.184 -0.366,17.499 -0.839,17.499C-2.863,17.499 -3.703,13.002 -6.028,11.255C-6.674,11.427 -7.363,11.513 -8.052,11.513C-8.547,11.513 -8.677,11.313 -8.677,11.084C-8.677,10.797 -8.547,10.769 -8.289,10.769C-4.909,10.769 -1.722,8.964 -1.722,4.782C-1.722,0.858 -4.026,0.086 -6.997,0.086L-9.646,0.086L-9.646,17.299C-9.646,17.299 -9.688,17.499 -9.968,17.499C-10.248,17.499 -10.292,17.299 -10.292,17.299L-10.292,-0.258C-10.292,-0.573 -10.141,-0.745 -9.925,-0.745L-6.954,-0.745C-3.725,-0.745 -1.033,0.515 -1.033,4.726C-1.033,8.076 -2.906,10.139 -5.275,11.026C-3.1,12.774 -2.39,16.84 -0.581,16.84C-0.215,16.84 -0.086,16.754 0,16.754Z" style="fill:none;fill-rule:nonzero;stroke:rgb(36,130,142);stroke-width:1px;"/>
        </g>
        <g transform="matrix(1,0,0,1,276.21,445.326)">
            <path d="M0,16.582C5.34,16.582 7.062,12.802 7.062,8.076C7.062,1.976 4.005,0 -0.452,0L-3.703,0L-3.703,16.582L0,16.582ZM-3.983,17.413C-4.198,17.413 -4.349,17.213 -4.349,16.926L-4.349,-0.344C-4.349,-0.659 -4.198,-0.831 -3.983,-0.831L-0.452,-0.831C4.241,-0.831 7.708,1.46 7.708,8.076C7.708,13.145 5.706,17.413 0,17.413L-3.983,17.413Z" style="fill:rgb(36,130,142);fill-rule:nonzero;stroke:rgb(36,130,142);stroke-width:1px;"/>
        </g>
        <g transform="matrix(1,0,0,1,290.425,461.908)">
            <path d="M0,-16.582L0,0.631C0,0.631 -0.043,0.831 -0.323,0.831C-0.603,0.831 -0.646,0.631 -0.646,0.631L-0.646,-16.582L-5.296,-16.582C-5.296,-16.582 -5.447,-16.64 -5.447,-17.012C-5.447,-17.355 -5.296,-17.413 -5.296,-17.413L4.65,-17.413C4.65,-17.413 4.801,-17.355 4.801,-17.012C4.801,-16.64 4.65,-16.582 4.65,-16.582L0,-16.582Z" style="fill:rgb(36,130,142);fill-rule:nonzero;stroke:rgb(36,130,142);stroke-width:1px;"/>
        </g>
        <g transform="matrix(1,0,0,1,310.767,462.793)">
            <path d="M0,-11.348C0,-11.348 0.027,-11.455 0.202,-11.455C0.377,-11.455 0.404,-11.348 0.404,-11.348L0.404,-3.742C0.404,-1.719 -1.009,0.107 -3.243,0.107C-5.545,0.107 -6.863,-1.719 -6.863,-3.742L-6.863,-11.348C-6.863,-11.348 -6.837,-11.455 -6.662,-11.455C-6.486,-11.455 -6.46,-11.348 -6.46,-11.348L-6.46,-3.742C-6.46,-1.952 -5.343,-0.412 -3.243,-0.412C-1.211,-0.412 0,-1.952 0,-3.742L0,-11.348Z" style="fill:rgb(36,130,142);fill-rule:nonzero;stroke:rgb(36,130,142);stroke-width:1px;"/>
        </g>
        <g transform="matrix(1,0,0,1,320.727,462.632)">
            <path d="M0,-11.187C0,-11.187 0.027,-11.294 0.202,-11.294C0.377,-11.294 0.403,-11.187 0.403,-11.187L0.403,-0.072C0.403,0.017 0.31,0.107 0.202,0.107C0.107,0.107 0.067,0.017 0.067,0.017L-6.285,-10.203L-6.285,-0.018C-6.285,-0.018 -6.312,0.107 -6.487,0.107C-6.662,0.107 -6.688,-0.018 -6.688,-0.018L-6.688,-11.116C-6.688,-11.205 -6.581,-11.294 -6.474,-11.294C-6.393,-11.294 -6.339,-11.205 -6.339,-11.205L0,-0.949L0,-11.187Z" style="fill:rgb(36,130,142);fill-rule:nonzero;stroke:rgb(36,130,142);stroke-width:1px;"/>
        </g>
        <g transform="matrix(1,0,0,1,326.84,451.858)">
            <path d="M0,10.362C3.337,10.362 4.414,8 4.414,5.047C4.414,1.234 2.503,0 -0.283,0L-2.315,0L-2.315,10.362L0,10.362ZM-2.49,10.882C-2.625,10.882 -2.719,10.757 -2.719,10.577L-2.719,-0.215C-2.719,-0.412 -2.625,-0.52 -2.49,-0.52L-0.283,-0.52C2.65,-0.52 4.817,0.912 4.817,5.047C4.817,8.215 3.566,10.882 0,10.882L-2.49,10.882Z" style="fill:rgb(36,130,142);fill-rule:nonzero;stroke:rgb(36,130,142);stroke-width:1px;"/>
        </g>
        <g transform="matrix(1,0,0,1,347.018,441.832)">
            <path d="M0,20.334C3.144,20.334 5.426,18.015 5.426,14.893C5.426,8.592 -5.081,11.026 -5.081,4.382C-5.081,0.916 -2.756,-0.859 0.323,-0.859C3.424,-0.859 4.995,1.174 4.995,3.408C4.995,4.754 4.414,5.584 4.221,5.584C4.048,5.584 3.94,5.412 3.94,5.241C3.94,4.983 4.371,4.582 4.371,3.437C4.371,1.575 2.972,-0.029 0.323,-0.029C-2.411,-0.029 -4.435,1.317 -4.435,4.438C-4.435,10.167 6.094,7.704 6.094,14.893C6.094,18.358 3.574,21.193 0.044,21.193C-3.315,21.193 -5.684,18.902 -5.684,15.952C-5.684,14.263 -5.06,13.575 -4.865,13.575C-4.693,13.575 -4.586,13.747 -4.586,13.919C-4.586,14.177 -5.037,14.377 -5.037,15.952C-5.037,18.387 -3.057,20.334 0,20.334" style="fill:rgb(36,130,142);fill-rule:nonzero;"/>
        </g>
        <g transform="matrix(1,0,0,1,347.018,441.832)">
            <path d="M0,20.334C3.144,20.334 5.426,18.015 5.426,14.893C5.426,8.592 -5.081,11.026 -5.081,4.382C-5.081,0.916 -2.756,-0.859 0.323,-0.859C3.424,-0.859 4.995,1.174 4.995,3.408C4.995,4.754 4.414,5.584 4.221,5.584C4.048,5.584 3.94,5.412 3.94,5.241C3.94,4.983 4.371,4.582 4.371,3.437C4.371,1.575 2.972,-0.029 0.323,-0.029C-2.411,-0.029 -4.435,1.317 -4.435,4.438C-4.435,10.167 6.094,7.704 6.094,14.893C6.094,18.358 3.574,21.193 0.044,21.193C-3.315,21.193 -5.684,18.902 -5.684,15.952C-5.684,14.263 -5.06,13.575 -4.865,13.575C-4.693,13.575 -4.586,13.747 -4.586,13.919C-4.586,14.177 -5.037,14.377 -5.037,15.952C-5.037,18.387 -3.057,20.334 0,20.334Z" style="fill:none;fill-rule:nonzero;stroke:rgb(36,130,142);stroke-width:1px;"/>
        </g>
        <g transform="matrix(1,0,0,1,362.438,462.166)">
            <path d="M0,-17.127C-3.144,-17.127 -6.008,-14.778 -6.008,-8.334C-6.008,-2.577 -3.101,0 0.15,0C2.325,0 3.939,-1.317 4.65,-2.377C4.779,-2.549 4.844,-2.635 4.951,-2.635C5.06,-2.635 5.188,-2.405 5.188,-2.262C5.188,-2.148 5.124,-2.062 5.016,-1.89C4.155,-0.572 2.325,0.859 0.15,0.859C-3.531,0.859 -6.653,-2.262 -6.653,-8.392C-6.653,-15.036 -3.445,-17.986 0,-17.986C2.82,-17.986 4.65,-15.81 4.65,-13.231C4.65,-12 4.22,-11.284 4.068,-11.284C3.961,-11.284 3.854,-11.398 3.854,-11.542C3.854,-11.714 4.068,-12.172 4.068,-13.06C4.068,-15.437 2.497,-17.127 0,-17.127" style="fill:rgb(36,130,142);fill-rule:nonzero;"/>
        </g>
        <g transform="matrix(1,0,0,1,362.438,462.166)">
            <path d="M0,-17.127C-3.144,-17.127 -6.008,-14.778 -6.008,-8.334C-6.008,-2.577 -3.101,0 0.15,0C2.325,0 3.939,-1.317 4.65,-2.377C4.779,-2.549 4.844,-2.635 4.951,-2.635C5.06,-2.635 5.188,-2.405 5.188,-2.262C5.188,-2.148 5.124,-2.062 5.016,-1.89C4.155,-0.572 2.325,0.859 0.15,0.859C-3.531,0.859 -6.653,-2.262 -6.653,-8.392C-6.653,-15.036 -3.445,-17.986 0,-17.986C2.82,-17.986 4.65,-15.81 4.65,-13.231C4.65,-12 4.22,-11.284 4.068,-11.284C3.961,-11.284 3.854,-11.398 3.854,-11.542C3.854,-11.714 4.068,-12.172 4.068,-13.06C4.068,-15.437 2.497,-17.127 0,-17.127Z" style="fill:none;fill-rule:nonzero;stroke:rgb(36,130,142);stroke-width:1px;"/>
        </g>
        <g transform="matrix(1,0,0,1,371.529,451.512)">
            <path d="M0,4.211L0,11.027C0,11.027 -0.043,11.228 -0.323,11.228C-0.604,11.228 -0.646,11.027 -0.646,11.027L-0.646,-6.845C-0.646,-6.845 -0.604,-7.017 -0.323,-7.017C-0.043,-7.017 0,-6.845 0,-6.845L0,3.352L10.119,3.352L10.119,-6.845C10.119,-6.845 10.162,-7.017 10.441,-7.017C10.722,-7.017 10.765,-6.845 10.765,-6.845L10.765,11.027C10.765,11.027 10.722,11.228 10.441,11.228C10.162,11.228 10.119,11.027 10.119,11.027L10.119,4.211L0,4.211Z" style="fill:rgb(36,130,142);fill-rule:nonzero;stroke:rgb(36,130,142);stroke-width:1px;"/>
        </g>
        <g transform="matrix(1,0,0,1,397.37,445.24)">
            <path d="M0,16.754C0.064,16.754 0.15,16.926 0.15,17.012C0.15,17.184 -0.366,17.499 -0.84,17.499C-2.864,17.499 -3.703,13.002 -6.029,11.255C-6.675,11.427 -7.363,11.513 -8.053,11.513C-8.548,11.513 -8.677,11.313 -8.677,11.084C-8.677,10.797 -8.548,10.769 -8.289,10.769C-4.909,10.769 -1.723,8.964 -1.723,4.782C-1.723,0.858 -4.026,0.086 -6.998,0.086L-9.646,0.086L-9.646,17.299C-9.646,17.299 -9.688,17.499 -9.969,17.499C-10.249,17.499 -10.292,17.299 -10.292,17.299L-10.292,-0.258C-10.292,-0.573 -10.141,-0.745 -9.926,-0.745L-6.955,-0.745C-3.726,-0.745 -1.034,0.515 -1.034,4.726C-1.034,8.076 -2.907,10.139 -5.275,11.026C-3.101,12.774 -2.391,16.84 -0.582,16.84C-0.216,16.84 -0.087,16.754 0,16.754" style="fill:rgb(36,130,142);fill-rule:nonzero;"/>
        </g>
        <g transform="matrix(1,0,0,1,397.37,445.24)">
            <path d="M0,16.754C0.064,16.754 0.15,16.926 0.15,17.012C0.15,17.184 -0.366,17.499 -0.84,17.499C-2.864,17.499 -3.703,13.002 -6.029,11.255C-6.675,11.427 -7.363,11.513 -8.053,11.513C-8.548,11.513 -8.677,11.313 -8.677,11.084C-8.677,10.797 -8.548,10.769 -8.289,10.769C-4.909,10.769 -1.723,8.964 -1.723,4.782C-1.723,0.858 -4.026,0.086 -6.998,0.086L-9.646,0.086L-9.646,17.299C-9.646,17.299 -9.688,17.499 -9.969,17.499C-10.249,17.499 -10.292,17.299 -10.292,17.299L-10.292,-0.258C-10.292,-0.573 -10.141,-0.745 -9.926,-0.745L-6.955,-0.745C-3.726,-0.745 -1.034,0.515 -1.034,4.726C-1.034,8.076 -2.907,10.139 -5.275,11.026C-3.101,12.774 -2.391,16.84 -0.582,16.84C-0.216,16.84 -0.087,16.754 0,16.754Z" style="fill:none;fill-rule:nonzero;stroke:rgb(36,130,142);stroke-width:1px;"/>
        </g>
        <g transform="matrix(1,0,0,1,400.97,449.135)">
            <path d="M0,8.649L8.763,8.649L4.393,-3.638L0,8.649ZM4.78,-4.554L11.131,13.174C11.131,13.174 11.196,13.318 11.196,13.404C11.196,13.518 11.088,13.604 10.83,13.604C10.593,13.604 10.464,13.375 10.464,13.375L9.064,9.451L-0.279,9.451L-1.68,13.375C-1.68,13.375 -1.809,13.604 -2.045,13.604C-2.304,13.604 -2.411,13.518 -2.411,13.404C-2.411,13.318 -2.347,13.174 -2.347,13.174L4.005,-4.554C4.005,-4.554 4.112,-4.955 4.393,-4.955C4.672,-4.955 4.78,-4.554 4.78,-4.554Z" style="fill:rgb(36,130,142);fill-rule:nonzero;stroke:rgb(36,130,142);stroke-width:1px;"/>
        </g>
        <g transform="matrix(1,0,0,1,419.318,445.326)">
            <path d="M0,16.582C5.339,16.582 7.062,12.802 7.062,8.076C7.062,1.976 4.004,0 -0.452,0L-3.703,0L-3.703,16.582L0,16.582ZM-3.983,17.413C-4.198,17.413 -4.35,17.213 -4.35,16.926L-4.35,-0.344C-4.35,-0.659 -4.198,-0.831 -3.983,-0.831L-0.452,-0.831C4.241,-0.831 7.707,1.46 7.707,8.076C7.707,13.145 5.705,17.413 0,17.413L-3.983,17.413Z" style="fill:rgb(36,130,142);fill-rule:nonzero;stroke:rgb(36,130,142);stroke-width:1px;"/>
        </g>
        <g transform="matrix(1,0,0,1,439.928,445.326)">
            <path d="M0,16.582C0,16.582 0.15,16.64 0.15,16.983C0.15,17.355 0,17.413 0,17.413L-8.72,17.413C-8.935,17.413 -9.086,17.213 -9.086,16.926L-9.086,-0.344C-9.086,-0.659 -8.935,-0.831 -8.72,-0.831L-0.517,-0.831C-0.517,-0.831 -0.366,-0.773 -0.366,-0.43C-0.366,-0.058 -0.517,0 -0.517,0L-8.461,0L-8.461,9.537L-1.637,9.537C-1.637,9.537 -1.485,9.594 -1.485,9.967C-1.485,10.339 -1.637,10.396 -1.637,10.396L-8.461,10.396L-8.461,16.582L0,16.582Z" style="fill:rgb(36,130,142);fill-rule:nonzero;stroke:rgb(36,130,142);stroke-width:1px;"/>
        </g>
        <g transform="matrix(1,0,0,1,453.797,445.24)">
            <path d="M0,16.754C0.064,16.754 0.15,16.926 0.15,17.012C0.15,17.184 -0.366,17.499 -0.84,17.499C-2.864,17.499 -3.703,13.002 -6.029,11.255C-6.675,11.427 -7.363,11.513 -8.053,11.513C-8.548,11.513 -8.677,11.313 -8.677,11.084C-8.677,10.797 -8.548,10.769 -8.289,10.769C-4.909,10.769 -1.723,8.964 -1.723,4.782C-1.723,0.858 -4.026,0.086 -6.998,0.086L-9.646,0.086L-9.646,17.299C-9.646,17.299 -9.688,17.499 -9.969,17.499C-10.249,17.499 -10.292,17.299 -10.292,17.299L-10.292,-0.258C-10.292,-0.573 -10.141,-0.745 -9.926,-0.745L-6.955,-0.745C-3.725,-0.745 -1.034,0.515 -1.034,4.726C-1.034,8.076 -2.907,10.139 -5.275,11.026C-3.101,12.774 -2.391,16.84 -0.582,16.84C-0.216,16.84 -0.087,16.754 0,16.754" style="fill:rgb(36,130,142);fill-rule:nonzero;"/>
        </g>
        <g transform="matrix(1,0,0,1,453.797,445.24)">
            <path d="M0,16.754C0.064,16.754 0.15,16.926 0.15,17.012C0.15,17.184 -0.366,17.499 -0.84,17.499C-2.864,17.499 -3.703,13.002 -6.029,11.255C-6.675,11.427 -7.363,11.513 -8.053,11.513C-8.548,11.513 -8.677,11.313 -8.677,11.084C-8.677,10.797 -8.548,10.769 -8.289,10.769C-4.909,10.769 -1.723,8.964 -1.723,4.782C-1.723,0.858 -4.026,0.086 -6.998,0.086L-9.646,0.086L-9.646,17.299C-9.646,17.299 -9.688,17.499 -9.969,17.499C-10.249,17.499 -10.292,17.299 -10.292,17.299L-10.292,-0.258C-10.292,-0.573 -10.141,-0.745 -9.926,-0.745L-6.955,-0.745C-3.725,-0.745 -1.034,0.515 -1.034,4.726C-1.034,8.076 -2.907,10.139 -5.275,11.026C-3.101,12.774 -2.391,16.84 -0.582,16.84C-0.216,16.84 -0.087,16.754 0,16.754Z" style="fill:none;fill-rule:nonzero;stroke:rgb(36,130,142);stroke-width:1px;"/>
        </g>
        <g transform="matrix(1,0,0,1,190.702,434.877)">
            <path d="M0,-29.765L0,-13.719L2.714,-13.719C6.205,-13.719 7.659,-16.337 7.659,-22.203C7.659,-27.632 5.962,-29.765 2.812,-29.765L0,-29.765ZM0,-10.278L0,3.539L-4.412,3.539L-4.412,-33.304L3.49,-33.304C9.017,-33.304 12.071,-30.298 12.071,-22.154C12.071,-13.574 8.774,-10.278 4.217,-10.278L0,-10.278Z" style="fill:rgb(255,221,0);fill-rule:nonzero;"/>
        </g>
        <g transform="matrix(1,0,0,1,220.804,401.572)">
            <path d="M0,36.843L0,20.021L-9.017,20.021L-9.017,36.843L-13.428,36.843L-13.428,0L-9.017,0L-9.017,16.483L0,16.483L0,0L4.412,0L4.412,36.843L0,36.843Z" style="fill:rgb(255,221,0);fill-rule:nonzero;"/>
        </g>
        <g transform="matrix(1,0,0,1,240.629,415.874)">
            <path d="M0,8.241L0,22.542L-4.363,22.542L-4.363,8.192L-11.392,-14.301L-6.447,-14.301L-2.036,1.842L-1.842,1.842L2.715,-14.301L7.029,-14.301L0,8.241Z" style="fill:rgb(255,221,0);fill-rule:nonzero;"/>
        </g>
        <g transform="matrix(1,0,0,1,250.178,409.232)">
            <path d="M0,21.475C0,19.972 0.146,18.663 0.388,17.403L3.781,17.694C3.587,18.76 3.442,20.021 3.442,21.233C3.442,24.82 5.43,26.275 8.047,26.275C10.859,26.275 12.604,23.851 12.604,21.233L12.604,20.7C12.604,17.839 10.326,15.415 6.69,11.731C3.151,8.096 -0.146,3.684 -0.146,-0.146L-0.146,-0.533C-0.146,-4.46 2.812,-8.29 8.532,-8.29C13.865,-8.29 16.289,-4.848 16.289,-0C16.289,1.6 16.143,3.054 15.949,4.266L12.556,4.023C12.75,3.054 12.847,2.278 12.847,0.533C12.847,-2.763 11.489,-4.848 8.629,-4.848C6.254,-4.848 4.169,-3.345 4.169,-0.63L4.169,-0.291C4.169,2.23 6.496,4.993 9.259,7.805C13.671,12.313 16.87,15.949 16.87,20.505L16.87,20.942C16.87,25.935 12.992,29.765 8.145,29.765C3.2,29.765 0,27.05 0,21.475" style="fill:rgb(255,221,0);fill-rule:nonzero;"/>
        </g>
        <g transform="matrix(1,0,0,1,0,-1.903)">
            <rect x="272.137" y="403.475" width="4.412" height="36.843" style="fill:rgb(255,221,0);"/>
        </g>
        <g transform="matrix(1,0,0,1,295.454,430.659)">
            <path d="M0,-21.379C0,-24.239 -1.745,-26.081 -4.218,-26.081C-6.787,-26.081 -8.532,-24.384 -8.532,-21.379L-8.532,-0.001C-8.532,2.908 -6.836,4.799 -4.169,4.799C-1.552,4.799 0,2.859 0,0.048L0,-21.379ZM-12.943,-0.582L-12.943,-20.652C-12.943,-27.293 -8.92,-29.717 -4.169,-29.717C0.533,-29.717 4.459,-27.439 4.459,-20.652L4.459,-0.582C4.459,5.816 0.533,8.338 -4.169,8.338C-8.969,8.338 -12.943,5.816 -12.943,-0.582" style="fill:rgb(255,221,0);fill-rule:nonzero;"/>
        </g>
        <g transform="matrix(1,0,0,1,314.115,434.877)">
            <path d="M0,-29.765L0,3.539L-4.411,3.539L-4.411,-29.765L-10.859,-29.765L-10.859,-33.304L6.447,-33.304L6.447,-29.765L0,-29.765Z" style="fill:rgb(255,221,0);fill-rule:nonzero;"/>
        </g>
        <g transform="matrix(1,0,0,1,338.109,401.572)">
            <path d="M0,36.843L0,20.021L-9.017,20.021L-9.017,36.843L-13.428,36.843L-13.428,0L-9.017,0L-9.017,16.483L0,16.483L0,0L4.412,0L4.412,36.843L0,36.843Z" style="fill:rgb(255,221,0);fill-rule:nonzero;"/>
        </g>
        <g transform="matrix(1,0,0,1,348.579,401.572)">
            <path d="M0,36.843L0,0L13.671,0L13.671,3.539L4.411,3.539L4.411,15.852L12.41,15.852L12.41,19.391L4.411,19.391L4.411,33.304L13.768,33.304L13.768,36.843L0,36.843Z" style="fill:rgb(255,221,0);fill-rule:nonzero;"/>
        </g>
        <g transform="matrix(1,0,0,1,371.847,434.877)">
            <path d="M0,-29.765L0,-15.464L3.006,-15.464C5.963,-15.464 7.805,-17.646 7.805,-23.124C7.805,-27.826 6.108,-29.765 3.103,-29.765L0,-29.765ZM7.175,-13.962C10.956,-13.089 11.296,-10.374 11.393,-5.478C11.393,-4.411 11.441,-2.861 11.441,-2.036C11.489,0.533 11.731,2.714 12.022,3.539L7.271,3.539C7.126,3.054 7.029,2.23 7.029,1.648C6.933,-1.018 6.884,-2.812 6.836,-5.09C6.69,-9.599 6.157,-12.168 2.618,-12.168L0,-12.168L0,3.539L-4.411,3.539L-4.411,-33.304L4.169,-33.304C8.823,-33.304 12.217,-30.395 12.217,-24.19C12.217,-19.1 11.247,-15.319 7.175,-14.156L7.175,-13.962Z" style="fill:rgb(255,221,0);fill-rule:nonzero;"/>
        </g>
        <g transform="matrix(1,0,0,1,396.181,432.696)">
            <path d="M0,-25.403L-0.194,-25.403L-3.539,-3.879L3.441,-3.879L0,-25.403ZM4.896,5.72L3.975,-0.34L-4.072,-0.34L-4.993,5.72L-8.871,5.72L-2.424,-31.123L2.908,-31.123L9.356,5.72L4.896,5.72Z" style="fill:rgb(255,221,0);fill-rule:nonzero;"/>
        </g>
        <g transform="matrix(1,0,0,1,414.163,434.877)">
            <path d="M0,-29.765L0,-13.719L2.715,-13.719C6.205,-13.719 7.66,-16.337 7.66,-22.203C7.66,-27.632 5.963,-29.765 2.812,-29.765L0,-29.765ZM0,-10.278L0,3.539L-4.411,3.539L-4.411,-33.304L3.49,-33.304C9.017,-33.304 12.071,-30.298 12.071,-22.154C12.071,-13.574 8.774,-10.278 4.218,-10.278L0,-10.278Z" style="fill:rgb(255,221,0);fill-rule:nonzero;"/>
        </g>
        <g transform="matrix(1,0,0,1,0,-1.903)">
            <rect x="430.838" y="403.475" width="4.411" height="36.843" style="fill:rgb(255,221,0);"/>
        </g>
        <g transform="matrix(1,0,0,1,441.308,401.572)">
            <path d="M0,36.843L0,0L13.671,0L13.671,3.539L4.411,3.539L4.411,15.852L12.41,15.852L12.41,19.391L4.411,19.391L4.411,33.304L13.768,33.304L13.768,36.843L0,36.843Z" style="fill:rgb(255,221,0);fill-rule:nonzero;"/>
        </g>
        <g transform="matrix(1,0,0,1,188.563,433.957)">
            <path d="M0,-29.765L0,-13.719L2.714,-13.719C6.205,-13.719 7.659,-16.337 7.659,-22.203C7.659,-27.632 5.962,-29.765 2.812,-29.765L0,-29.765ZM0,-10.278L0,3.539L-4.412,3.539L-4.412,-33.304L3.49,-33.304C9.017,-33.304 12.071,-30.298 12.071,-22.154C12.071,-13.574 8.774,-10.278 4.217,-10.278L0,-10.278Z" style="fill:rgb(0,121,131);fill-rule:nonzero;stroke:white;stroke-width:0.51px;stroke-linecap:square;"/>
        </g>
        <g transform="matrix(1,0,0,1,218.665,400.652)">
            <path d="M0,36.843L0,20.021L-9.017,20.021L-9.017,36.843L-13.428,36.843L-13.428,0L-9.017,0L-9.017,16.483L0,16.483L0,0L4.412,0L4.412,36.843L0,36.843Z" style="fill:rgb(0,121,131);fill-rule:nonzero;stroke:white;stroke-width:0.51px;stroke-linecap:square;"/>
        </g>
        <g transform="matrix(1,0,0,1,238.49,414.954)">
            <path d="M0,8.241L0,22.542L-4.363,22.542L-4.363,8.192L-11.392,-14.301L-6.447,-14.301L-2.036,1.842L-1.842,1.842L2.715,-14.301L7.029,-14.301L0,8.241Z" style="fill:rgb(0,121,131);fill-rule:nonzero;stroke:white;stroke-width:0.51px;stroke-linecap:square;"/>
        </g>
        <g transform="matrix(1,0,0,1,248.039,408.312)">
            <path d="M0,21.475C0,19.972 0.146,18.663 0.388,17.403L3.781,17.694C3.587,18.76 3.442,20.021 3.442,21.233C3.442,24.82 5.43,26.275 8.047,26.275C10.859,26.275 12.604,23.851 12.604,21.233L12.604,20.7C12.604,17.839 10.326,15.415 6.69,11.731C3.151,8.096 -0.146,3.684 -0.146,-0.146L-0.146,-0.533C-0.146,-4.46 2.812,-8.29 8.532,-8.29C13.865,-8.29 16.289,-4.848 16.289,-0C16.289,1.6 16.143,3.054 15.949,4.266L12.556,4.023C12.75,3.054 12.847,2.278 12.847,0.533C12.847,-2.763 11.489,-4.848 8.629,-4.848C6.254,-4.848 4.169,-3.345 4.169,-0.63L4.169,-0.291C4.169,2.23 6.496,4.993 9.259,7.805C13.671,12.313 16.87,15.949 16.87,20.505L16.87,20.942C16.87,25.935 12.992,29.765 8.145,29.765C3.2,29.765 0,27.05 0,21.475" style="fill:rgb(0,121,131);fill-rule:nonzero;"/>
        </g>
        <g transform="matrix(1,0,0,1,248.039,408.312)">
            <path d="M0,21.475C0,19.972 0.146,18.663 0.388,17.403L3.781,17.694C3.587,18.76 3.442,20.021 3.442,21.233C3.442,24.82 5.43,26.275 8.047,26.275C10.859,26.275 12.604,23.851 12.604,21.233L12.604,20.7C12.604,17.839 10.326,15.415 6.69,11.731C3.151,8.096 -0.146,3.684 -0.146,-0.146L-0.146,-0.533C-0.146,-4.46 2.812,-8.29 8.532,-8.29C13.865,-8.29 16.289,-4.848 16.289,-0C16.289,1.6 16.143,3.054 15.949,4.266L12.556,4.023C12.75,3.054 12.847,2.278 12.847,0.533C12.847,-2.763 11.489,-4.848 8.629,-4.848C6.254,-4.848 4.169,-3.345 4.169,-0.63L4.169,-0.291C4.169,2.23 6.496,4.993 9.259,7.805C13.671,12.313 16.87,15.949 16.87,20.505L16.87,20.942C16.87,25.935 12.992,29.765 8.145,29.765C3.2,29.765 0,27.05 0,21.475Z" style="fill:none;fill-rule:nonzero;stroke:white;stroke-width:0.51px;stroke-linecap:square;"/>
        </g>
        <g transform="matrix(1,0,0,1,0,-3.741)">
            <rect x="269.998" y="404.394" width="4.412" height="36.843" style="fill:rgb(0,121,131);stroke:white;stroke-width:0.51px;stroke-linecap:square;"/>
        </g>
        <g transform="matrix(1,0,0,1,293.315,429.74)">
            <path d="M0,-21.379C0,-24.239 -1.745,-26.081 -4.218,-26.081C-6.787,-26.081 -8.532,-24.384 -8.532,-21.379L-8.532,-0.001C-8.532,2.908 -6.836,4.799 -4.169,4.799C-1.552,4.799 0,2.859 0,0.048L0,-21.379ZM-12.943,-0.582L-12.943,-20.652C-12.943,-27.293 -8.92,-29.717 -4.169,-29.717C0.533,-29.717 4.46,-27.439 4.46,-20.652L4.46,-0.582C4.46,5.816 0.533,8.338 -4.169,8.338C-8.969,8.338 -12.943,5.816 -12.943,-0.582Z" style="fill:rgb(0,121,131);fill-rule:nonzero;stroke:white;stroke-width:0.51px;stroke-linecap:square;"/>
        </g>
        <g transform="matrix(1,0,0,1,311.977,433.957)">
            <path d="M0,-29.765L0,3.539L-4.411,3.539L-4.411,-29.765L-10.859,-29.765L-10.859,-33.304L6.447,-33.304L6.447,-29.765L0,-29.765Z" style="fill:rgb(0,121,131);fill-rule:nonzero;stroke:white;stroke-width:0.51px;stroke-linecap:square;"/>
        </g>
        <g transform="matrix(1,0,0,1,335.971,400.652)">
            <path d="M0,36.843L0,20.021L-9.017,20.021L-9.017,36.843L-13.428,36.843L-13.428,0L-9.017,0L-9.017,16.483L0,16.483L0,0L4.412,0L4.412,36.843L0,36.843Z" style="fill:rgb(0,121,131);fill-rule:nonzero;stroke:white;stroke-width:0.51px;stroke-linecap:square;"/>
        </g>
        <g transform="matrix(1,0,0,1,346.44,400.652)">
            <path d="M0,36.843L0,0L13.671,0L13.671,3.539L4.411,3.539L4.411,15.852L12.41,15.852L12.41,19.391L4.411,19.391L4.411,33.304L13.768,33.304L13.768,36.843L0,36.843Z" style="fill:rgb(0,121,131);fill-rule:nonzero;stroke:white;stroke-width:0.51px;stroke-linecap:square;"/>
        </g>
        <g transform="matrix(1,0,0,1,369.708,433.957)">
            <path d="M0,-29.765L0,-15.464L3.006,-15.464C5.963,-15.464 7.805,-17.646 7.805,-23.124C7.805,-27.826 6.108,-29.765 3.103,-29.765L0,-29.765ZM7.175,-13.962C10.956,-13.089 11.296,-10.374 11.393,-5.478C11.393,-4.411 11.441,-2.861 11.441,-2.036C11.489,0.533 11.731,2.714 12.022,3.539L7.271,3.539C7.126,3.054 7.029,2.23 7.029,1.648C6.933,-1.018 6.884,-2.812 6.836,-5.09C6.69,-9.599 6.157,-12.168 2.618,-12.168L0,-12.168L0,3.539L-4.411,3.539L-4.411,-33.304L4.169,-33.304C8.823,-33.304 12.217,-30.395 12.217,-24.19C12.217,-19.1 11.247,-15.319 7.175,-14.156L7.175,-13.962Z" style="fill:rgb(0,121,131);fill-rule:nonzero;stroke:white;stroke-width:0.51px;stroke-linecap:square;"/>
        </g>
        <g transform="matrix(1,0,0,1,394.042,431.776)">
            <path d="M0,-25.403L-0.194,-25.403L-3.539,-3.879L3.441,-3.879L0,-25.403ZM4.896,5.72L3.975,-0.34L-4.072,-0.34L-4.993,5.72L-8.871,5.72L-2.424,-31.123L2.908,-31.123L9.356,5.72L4.896,5.72Z" style="fill:rgb(0,121,131);fill-rule:nonzero;stroke:white;stroke-width:0.51px;stroke-linecap:square;"/>
        </g>
        <g transform="matrix(1,0,0,1,412.024,433.957)">
            <path d="M0,-29.765L0,-13.719L2.715,-13.719C6.205,-13.719 7.66,-16.337 7.66,-22.203C7.66,-27.632 5.963,-29.765 2.812,-29.765L0,-29.765ZM0,-10.278L0,3.539L-4.411,3.539L-4.411,-33.304L3.49,-33.304C9.017,-33.304 12.071,-30.298 12.071,-22.154C12.071,-13.574 8.774,-10.278 4.218,-10.278L0,-10.278Z" style="fill:rgb(0,121,131);fill-rule:nonzero;stroke:white;stroke-width:0.51px;stroke-linecap:square;"/>
        </g>
        <g transform="matrix(1,0,0,1,0,-3.741)">
            <rect x="428.699" y="404.394" width="4.411" height="36.843" style="fill:rgb(0,121,131);stroke:white;stroke-width:0.51px;stroke-linecap:square;"/>
        </g>
        <g transform="matrix(1,0,0,1,439.169,400.652)">
            <path d="M0,36.843L0,0L13.671,0L13.671,3.539L4.411,3.539L4.411,15.852L12.41,15.852L12.41,19.391L4.411,19.391L4.411,33.304L13.768,33.304L13.768,36.843L0,36.843Z" style="fill:rgb(0,121,131);fill-rule:nonzero;stroke:white;stroke-width:0.51px;stroke-linecap:square;"/>
        </g>
    </g>
    <g id="ArtBoard1" transform="matrix(3.42518,0,0,2.24329,-1070.37,-841.235)">
        <rect x="312.5" y="375" width="387.5" height="325" style="fill:none;"/>
    </g>
</svg>
